<?xml version="1.0" standalone="no"?>
<!DOCTYPE svg PUBLIC "-//W3C//DTD SVG 20010904//EN"
 "http://www.w3.org/TR/2001/REC-SVG-20010904/DTD/svg10.dtd">
<svg version="1.0" xmlns="http://www.w3.org/2000/svg"
 width="500.000000pt" height="500.000000pt" viewBox="0 0 500.000000 500.000000"
 preserveAspectRatio="xMidYMid meet">
<metadata>
Created by potrace 1.13, written by Peter Selinger 2001-2015
</metadata>
<g transform="translate(0.000000,500.000000) scale(0.100000,-0.100000)"
fill="#000000" stroke="none">
<path d="M2360 4728 c-107 -7 -119 -9 -281 -38 -719 -126 -1353 -649 -1632
-1345 -140 -348 -194 -733 -152 -1075 48 -384 162 -701 360 -1001 217 -327
495 -573 853 -754 204 -104 390 -163 622 -199 160 -25 179 -27 370 -27 273 0
465 30 715 113 322 107 616 291 857 534 343 347 560 778 634 1261 20 132 26
364 13 480 -16 145 -18 159 -45 289 -66 326 -228 670 -439 935 -69 85 -220
239 -315 319 -153 130 -417 284 -632 369 -115 46 -328 99 -508 128 -64 10
-335 17 -420 11z m373 -168 l0 -55 -97 -5 c-59 -3 -100 -10 -104 -17 -4 -7 -5
-36 -2 -65 l5 -53 95 -5 95 -5 0 -60 0 -60 -84 -2 c-45 -1 -90 -4 -97 -7 -12
-4 -14 -23 -12 -83 l3 -78 118 -3 117 -3 0 -59 0 -60 -82 -2 c-184 -4 -334 -4
-350 0 -17 4 -18 28 -18 336 0 183 3 336 7 340 4 3 96 5 206 4 l200 -3 0 -55z
m-870 -145 c16 -50 51 -162 79 -250 27 -88 55 -166 62 -172 9 -10 35 -5 121
22 60 19 113 31 116 27 4 -4 13 -28 22 -54 19 -57 18 -58 -83 -87 -41 -12
-132 -41 -203 -63 -70 -22 -129 -39 -132 -36 -4 4 -105 321 -170 533 -19 60
-32 112 -29 115 9 9 159 58 174 56 9 -1 25 -35 43 -91z m1426 30 c82 -21 155
-61 216 -117 30 -27 55 -53 55 -57 0 -4 -21 -22 -47 -40 -43 -31 -49 -32 -69
-20 -128 81 -161 92 -226 76 -81 -20 -168 -133 -168 -220 0 -69 59 -167 101
-167 10 0 33 27 58 70 23 39 44 70 47 70 3 0 42 -21 85 -47 57 -34 79 -53 76
-64 -7 -28 -129 -221 -143 -226 -7 -3 -37 3 -66 12 -232 76 -375 264 -346 454
12 78 43 137 103 197 85 86 197 113 324 79z m-1775 -250 c64 -30 158 -126 189
-192 32 -71 32 -218 -1 -286 -77 -155 -270 -236 -424 -177 -191 72 -298 325
-210 496 40 78 147 162 236 185 52 13 154 1 210 -26z m2350 -108 c36 -32 66
-64 66 -70 0 -16 -428 -491 -446 -495 -15 -4 -144 107 -144 123 0 6 40 53 88
106 48 53 148 164 222 247 74 83 138 150 142 149 4 -1 36 -28 72 -60z m-2955
-358 l32 -50 -46 -53 c-45 -53 -75 -118 -75 -163 0 -85 100 -191 197 -207 88
-15 169 32 228 133 33 56 38 57 112 26 41 -17 41 -32 1 -107 -63 -119 -186
-214 -305 -236 -63 -11 -160 1 -211 27 -232 118 -253 412 -45 618 35 34 68 63
73 63 4 0 22 -23 39 -51z m3224 -15 c109 -38 193 -140 215 -264 29 -161 -66
-317 -235 -385 -80 -33 -196 -31 -268 5 -64 31 -127 96 -162 168 -24 49 -28
69 -28 142 0 74 4 92 28 138 91 173 280 255 450 196z m-1993 -144 c0 -52 -18
-80 -122 -195 l-45 -49 -27 18 c-15 9 -26 23 -24 31 5 24 200 255 209 249 5
-3 9 -27 9 -54z m-60 42 c0 -9 -76 -107 -147 -187 l-43 -50 -91 -4 c-50 -1
-95 1 -101 7 -18 18 157 142 292 206 78 38 90 41 90 28z m1014 -74 c399 -235
623 -639 603 -1087 -6 -131 -7 -143 -34 -251 -20 -83 -80 -235 -99 -251 -13
-10 -14 -1 -12 67 2 77 2 79 -22 82 -52 8 -52 10 -45 237 5 150 11 219 21 242
8 18 16 69 17 115 l2 83 -100 5 -100 5 0 277 c0 152 -2 278 -5 281 -3 3 -76 7
-163 10 -86 3 -162 9 -168 13 -7 4 -9 21 -5 43 4 20 8 61 11 91 6 61 11 80 22
80 4 0 39 -19 77 -42z m-311 -87 c14 -24 17 -60 19 -197 l3 -169 -234 -3
c-164 -2 -238 1 -247 9 -11 9 -13 32 -9 98 2 47 5 120 5 162 0 62 4 81 21 103
l20 26 203 0 202 0 17 -29z m-530 -178 c-1 -137 -4 -169 -17 -182 -13 -12 -20
-13 -34 -5 -15 10 -17 28 -13 175 2 124 7 170 18 188 14 22 16 22 31 7 15 -15
17 -40 15 -183z m655 160 c12 -31 25 -314 16 -338 -8 -20 -50 -19 -58 1 -10
27 -7 324 4 345 15 26 26 24 38 -8z m-774 -30 c3 -21 3 -102 -1 -181 l-6 -142
-64 -75 c-36 -41 -68 -73 -73 -70 -5 3 -7 49 -5 103 2 53 4 132 5 174 l0 77
63 75 c34 41 65 75 68 75 4 1 9 -16 13 -36z m1159 -105 c15 -12 16 -36 9 -258
l-7 -245 -70 -5 c-38 -3 -91 -3 -117 -2 l-48 4 0 49 c0 43 -3 51 -25 61 -24
11 -25 16 -25 89 0 63 -3 80 -17 87 -14 8 -16 25 -14 113 1 57 5 107 7 111 9
14 288 10 307 -4z m-1163 -321 c0 -63 0 -63 -61 -135 -34 -40 -65 -72 -69 -72
-11 0 -21 86 -12 109 8 22 123 159 135 160 4 1 7 -27 7 -62z m-720 -182 c0
-96 4 -175 8 -175 4 0 33 32 65 70 31 39 62 70 67 70 6 0 10 -30 10 -68 0 -75
-2 -78 -92 -184 -27 -30 -48 -60 -48 -65 0 -12 33 -23 67 -23 12 0 27 -8 32
-17 8 -14 10 -9 11 26 0 43 0 44 -20 26 -18 -16 -50 -15 -50 2 1 21 39 53 56
46 12 -4 15 -3 9 6 -8 14 13 61 27 61 5 0 7 -125 6 -277 -2 -179 -7 -277 -13
-276 -5 1 -13 24 -16 50 -5 45 -6 44 -7 -21 -2 -48 -7 -75 -18 -87 -9 -10 -14
-23 -12 -30 2 -6 30 20 62 57 32 38 62 71 67 72 5 2 9 -81 9 -185 l-1 -188
-52 57 c-106 114 -215 337 -254 518 -14 65 -18 126 -17 255 1 151 4 182 28
273 31 118 54 182 67 182 5 0 9 -79 9 -175z m1484 102 c93 -1 131 -6 134 -14
3 -10 -39 -13 -190 -13 -289 0 -688 12 -688 21 0 4 10 9 23 11 21 3 434 0 721
-5z m59 -73 l77 -7 0 -221 c0 -122 -3 -251 -6 -288 -6 -61 -9 -67 -32 -73 -14
-3 -58 -3 -97 0 l-72 7 -6 123 c-6 139 -23 186 -79 228 -53 40 -75 48 -131 48
-64 1 -112 -19 -154 -63 -45 -46 -54 -77 -59 -203 -3 -60 -7 -116 -9 -122 -7
-19 -228 -18 -244 1 -9 11 -10 85 -6 288 4 150 9 276 12 280 5 10 700 11 806
2z m-1044 -30 l62 -7 -3 -76 -3 -76 -190 0 -190 0 -3 69 c-2 38 -1 75 2 83 4
10 35 13 134 13 71 0 157 -3 191 -6z m-213 -219 c-4 -14 -3 -25 2 -25 5 0 14
11 20 25 11 24 14 25 116 25 62 0 107 -4 111 -10 4 -6 -19 -42 -51 -81 l-57
-70 -66 3 -66 3 -6 40 c-3 22 -7 -45 -8 -150 -1 -104 -6 -197 -11 -205 -22
-35 -29 15 -32 238 l-3 232 29 0 c25 0 27 -3 22 -25z m1708 -17 c23 -33 20
-50 -17 -92 l-32 -38 -149 0 c-82 0 -152 4 -157 9 -5 5 -6 39 -2 76 l6 67 168
0 c162 0 168 -1 183 -22z m-810 -62 c18 -8 46 -31 62 -52 26 -34 29 -45 29
-118 l0 -81 -135 0 -135 0 -3 112 -3 113 33 20 c39 23 104 26 152 6z m826
-129 c0 -147 -11 -255 -28 -262 -35 -13 -42 13 -42 153 0 130 1 136 26 169 14
18 29 31 34 28 5 -3 9 -43 10 -88z m-1616 47 c12 -5 15 -27 15 -127 0 -147 -4
-169 -33 -165 -19 3 -21 10 -26 103 -5 96 -6 99 -30 105 -25 6 -38 44 -26 76
6 14 70 20 100 8z m1529 -25 c12 -19 -1 -269 -14 -269 -5 0 -9 45 -9 100 l0
100 -94 0 -93 0 -7 -46 c-3 -26 -6 -71 -6 -100 0 -61 -17 -83 -22 -27 -2 20
-7 38 -13 40 -6 2 -10 -46 -10 -129 l0 -133 -380 -1 c-209 0 -419 1 -467 4
l-88 5 0 122 c0 90 4 125 13 134 9 7 49 9 125 4 94 -5 111 -9 109 -22 -2 -17
3 -21 29 -21 11 0 14 6 9 20 -5 16 -2 20 14 20 16 0 21 -6 21 -26 0 -19 4 -25
18 -22 10 2 17 12 16 26 0 17 5 22 23 22 18 0 22 -5 20 -22 -2 -18 3 -23 23
-23 20 0 25 5 23 23 -2 13 3 22 11 22 8 0 16 -10 18 -22 2 -15 10 -23 23 -23
15 0 19 6 18 23 -2 16 2 22 17 22 15 0 19 -6 17 -22 -1 -17 3 -23 18 -23 15 0
19 6 18 23 -2 17 2 22 22 22 20 0 24 -5 22 -22 -1 -17 4 -24 22 -26 21 -3 23
-1 17 22 l-6 26 127 0 128 0 -3 96 c-2 53 -1 102 2 110 8 22 275 16 289 -7z
m-2206 -303 c2 -2 18 -37 34 -78 l30 -73 -43 -40 c-304 -279 -488 -445 -496
-445 -10 0 -15 12 -56 122 l-25 67 65 58 65 58 -32 85 c-44 119 -46 120 -141
120 l-79 0 -19 43 c-10 23 -22 55 -26 71 l-7 29 363 -6 c199 -3 365 -8 367
-11z m835 2 c2 -7 1 -56 -2 -108 l-5 -95 -150 0 -150 0 -3 108 -3 107 155 0
c114 0 155 -3 158 -12z m2208 -188 c146 -104 266 -196 268 -202 1 -7 -15 -35
-36 -63 -46 -61 -50 -62 -309 -71 -112 -4 -203 -10 -203 -14 0 -3 65 -52 145
-109 80 -57 145 -106 145 -110 0 -12 -80 -121 -89 -121 -12 0 -522 363 -540
384 -7 9 -1 25 25 62 43 60 42 60 317 70 142 5 206 11 204 18 -4 11 -143 115
-239 179 -27 17 -48 38 -48 45 0 18 72 122 85 122 6 0 129 -85 275 -190z
m-1104 -4 c3 -7 2 -114 -3 -237 l-8 -224 -105 -42 c-58 -22 -120 -44 -137 -48
l-33 -7 0 169 c0 142 -3 174 -19 208 -22 47 -64 89 -104 104 -69 26 -176 2
-224 -50 -43 -48 -53 -92 -60 -265 l-6 -164 -44 0 -45 0 7 158 c6 121 12 167
26 201 41 94 101 145 210 177 46 14 63 15 114 4 32 -6 72 -18 88 -27 36 -18
57 -11 57 20 0 13 3 27 7 30 3 4 66 7 140 7 104 0 135 -3 139 -14z m-948 -260
l-5 -251 -25 2 c-14 1 -49 12 -78 24 l-52 22 6 106 c3 58 6 127 6 153 0 42 6
53 66 127 36 45 71 78 76 75 7 -4 9 -95 6 -258z m-160 179 c1 -22 -1 -46 -6
-53 -6 -8 -49 -13 -147 -15 l-139 -2 -8 35 c-4 19 -5 45 -3 58 5 22 7 23 153
20 l147 -3 3 -40z m751 -60 c22 -24 44 -61 50 -82 13 -48 7 -321 -7 -335 -6
-6 -18 -8 -28 -4 -16 6 -17 21 -11 169 7 179 0 214 -57 266 -14 14 -26 28 -26
32 0 18 43 -7 79 -46z m735 16 c3 -4 -18 -35 -48 -67 l-53 -58 -64 -1 -64 0
-3 -50 c-2 -27 -9 -56 -15 -64 -14 -17 -97 -71 -109 -71 -9 0 -11 192 -2 268
l7 52 173 0 c95 0 175 -4 178 -9z m-885 -82 c67 -41 70 -50 71 -201 0 -149 -3
-168 -30 -168 -26 0 -28 12 -22 121 3 62 1 103 -7 117 -17 32 -66 54 -115 51
-56 -4 -66 4 -56 45 4 18 10 39 14 45 12 19 108 13 145 -10z m-1186 -70 c37
-33 67 -64 67 -69 0 -4 -81 -96 -180 -204 -99 -108 -180 -201 -180 -206 0 -4
39 -44 86 -88 l87 -80 -34 -41 c-19 -22 -41 -41 -49 -41 -15 1 -128 99 -262
227 -59 57 -66 67 -55 82 6 10 102 116 212 236 110 120 204 224 208 231 14 24
30 16 100 -47z m2088 -317 c57 -41 178 -124 269 -186 91 -62 166 -119 168
-127 3 -14 -135 -119 -156 -119 -5 0 -36 20 -68 45 -31 25 -63 45 -69 45 -10
0 -141 -86 -168 -110 -4 -4 -1 -40 8 -81 8 -41 15 -80 15 -86 0 -19 -109 -88
-120 -77 -5 5 -32 115 -61 244 -28 129 -62 282 -75 339 -12 58 -20 109 -17
114 2 4 32 28 65 52 71 51 54 56 209 -53z m-1691 19 c41 -16 122 -47 179 -68
57 -21 105 -43 108 -50 7 -18 -27 -103 -41 -103 -7 0 -50 14 -96 30 -48 18
-87 27 -92 22 -5 -5 -17 -31 -28 -59 -23 -61 -24 -60 83 -98 86 -31 88 -35 57
-104 -16 -34 -24 -42 -37 -36 -95 38 -155 56 -166 52 -17 -6 -61 -121 -54
-139 2 -7 52 -30 111 -52 59 -22 106 -44 106 -52 0 -7 -9 -33 -20 -58 l-19
-45 -98 35 c-154 56 -307 116 -317 124 -4 5 14 66 42 137 50 128 166 428 183
471 5 12 12 22 16 22 5 0 42 -13 83 -29z m1224 -238 c3 -65 8 -190 11 -278 3
-88 8 -183 11 -211 4 -33 2 -54 -5 -59 -6 -3 -52 -9 -101 -11 -87 -5 -89 -5
-94 18 -5 21 -15 281 -16 386 0 23 -4 42 -9 42 -5 0 -18 -36 -30 -80 -12 -43
-42 -145 -66 -226 -25 -80 -45 -148 -45 -150 0 -11 -130 -3 -137 9 -14 23
-111 267 -138 347 -15 44 -31 80 -37 80 -7 0 -8 -52 -2 -167 4 -93 8 -193 9
-223 l0 -55 -42 -6 c-23 -3 -57 -3 -76 -1 l-34 4 -11 266 c-7 147 -13 296 -15
332 l-2 65 60 6 c33 4 94 7 136 8 l77 1 41 -102 c23 -57 58 -147 79 -200 20
-54 39 -98 43 -98 4 0 16 40 28 88 43 179 88 316 104 321 9 4 70 8 136 9 l119
3 6 -118z"/>
<path d="M1274 4051 c-42 -26 -64 -59 -64 -96 1 -64 81 -194 153 -246 100 -73
217 -1 186 114 -22 84 -106 194 -172 226 -53 26 -64 26 -103 2z"/>
<path d="M3978 3518 c-122 -66 -185 -146 -167 -212 13 -46 62 -86 104 -86 77
0 233 99 270 171 20 37 19 74 -2 109 -35 60 -116 67 -205 18z"/>
<path d="M2537 2724 c-98 -25 -170 -98 -197 -201 -12 -45 -40 -83 -62 -83 -5
0 -7 8 -3 19 13 44 -23 71 -61 46 -45 -29 -23 -85 38 -100 20 -5 37 -1 62 15
30 18 39 32 56 91 35 118 121 189 227 189 106 0 213 -91 230 -194 11 -70 85
-126 130 -98 21 13 34 61 23 83 -16 28 -56 25 -73 -7 -16 -31 -18 -29 -42 49
-44 143 -188 227 -328 191z"/>
<path d="M856 1969 c-55 -4 -103 -12 -107 -16 -9 -9 20 -96 38 -114 7 -7 37 9
102 56 85 63 108 87 79 84 -7 -1 -58 -5 -112 -10z"/>
<path d="M3327 1184 c-3 -3 -2 -16 3 -27 5 -12 21 -61 35 -109 15 -49 31 -88
36 -88 12 0 95 56 104 69 6 11 -170 163 -178 155z"/>
</g>
</svg>
