<?xml version="1.0" standalone="no"?>
<!DOCTYPE svg PUBLIC "-//W3C//DTD SVG 20010904//EN"
 "http://www.w3.org/TR/2001/REC-SVG-20010904/DTD/svg10.dtd">
<svg version="1.0" xmlns="http://www.w3.org/2000/svg"
 width="500.000000pt" height="500.000000pt" viewBox="0 0 500.000000 500.000000"
 preserveAspectRatio="xMidYMid meet">

<g transform="translate(0.000000,500.000000) scale(0.100000,-0.100000)"
fill="#000000" stroke="none">
<path d="M2360 4728 c-107 -7 -119 -9 -281 -38 -719 -126 -1353 -649 -1632
-1345 -140 -348 -194 -733 -152 -1075 48 -385 163 -705 361 -1001 222 -333
493 -572 852 -754 204 -104 390 -163 622 -199 160 -25 179 -27 370 -27 273 0
465 30 715 113 322 107 616 291 857 534 343 347 560 778 634 1261 20 132 26
364 13 480 -16 145 -18 159 -45 289 -66 326 -228 670 -439 935 -69 85 -220
239 -315 319 -153 130 -417 284 -632 369 -115 46 -328 99 -508 128 -64 10
-335 17 -420 11z m370 -168 l0 -60 -95 0 c-83 0 -96 -2 -105 -19 -12 -23 -13
-91 -2 -108 5 -8 42 -13 102 -15 l95 -3 3 -57 c3 -54 2 -58 -20 -59 -127 -5
-161 -9 -173 -19 -10 -9 -15 -32 -15 -76 0 -91 8 -96 139 -92 l106 3 3 -57 3
-58 -83 -2 c-175 -4 -334 -4 -350 0 -17 4 -18 28 -18 336 0 183 3 336 7 339 3
4 96 7 205 7 l198 0 0 -60z m-867 -146 c16 -49 51 -161 79 -249 27 -88 55
-166 62 -173 9 -10 31 -6 106 18 130 41 133 40 152 -20 19 -58 19 -57 -62 -81
-30 -9 -122 -37 -204 -63 -81 -26 -150 -46 -151 -44 -3 2 -105 325 -186 583
-10 33 -15 63 -11 66 10 10 165 58 177 55 5 -1 22 -43 38 -92z m1473 15 c75
-28 128 -61 181 -112 40 -39 42 -42 26 -59 -9 -10 -32 -28 -51 -40 l-33 -20
-42 29 c-68 49 -105 64 -156 65 -82 0 -144 -45 -187 -137 -40 -84 -29 -161 34
-227 39 -43 55 -36 102 43 25 42 47 69 54 66 23 -9 156 -97 156 -103 0 -14
-135 -227 -147 -231 -24 -9 -146 40 -213 86 -80 55 -129 108 -167 182 -25 48
-28 64 -28 149 0 84 3 101 28 148 50 94 131 162 222 185 40 11 165 -3 221 -24z
m-1820 -239 c74 -36 145 -109 182 -188 23 -49 27 -70 27 -147 0 -79 -4 -97
-28 -143 -36 -68 -94 -124 -165 -159 -49 -24 -69 -28 -142 -28 -74 0 -92 4
-143 29 -67 35 -135 103 -170 172 -32 65 -38 94 -38 177 0 114 59 210 168 274
103 60 202 64 309 13z m2414 -174 c0 -6 -60 -76 -132 -156 -72 -80 -169 -188
-216 -240 -46 -52 -91 -96 -98 -98 -13 -3 -134 99 -142 120 -2 5 31 48 75 96
112 124 289 320 335 370 l40 43 69 -62 c38 -33 69 -66 69 -73z m-3021 -287
l31 -51 -41 -46 c-103 -116 -103 -222 1 -315 75 -68 147 -84 225 -48 45 20
108 85 132 136 18 38 28 38 101 8 30 -12 33 -17 27 -41 -22 -88 -133 -215
-230 -262 -108 -53 -210 -56 -313 -8 -66 31 -143 112 -166 176 -51 145 -2 316
127 440 36 34 67 62 70 62 2 0 18 -23 36 -51z m3256 -31 c69 -36 137 -111 164
-182 74 -199 -35 -398 -253 -461 -160 -47 -317 27 -392 183 -39 81 -40 193 -3
272 45 97 131 173 232 206 67 22 191 13 252 -18z m-1492 -14 c81 -14 29 -24
-122 -24 -175 0 -268 8 -236 21 24 9 305 11 358 3z m-533 -114 c0 -45 -5 -55
-59 -122 -32 -40 -70 -84 -85 -97 -24 -23 -26 -23 -51 -7 -14 9 -25 22 -25 29
0 19 201 258 211 251 5 -3 9 -27 9 -54z m-57 38 c-18 -24 -132 -163 -162 -198
-29 -35 -30 -35 -121 -39 -51 -1 -96 1 -102 7 -18 18 157 142 292 206 78 38
110 46 93 24z m217 -38 c0 -25 -18 -36 -26 -16 -8 21 3 49 16 41 5 -3 10 -15
10 -25z m60 6 c0 -14 -5 -28 -10 -31 -13 -8 -24 20 -16 40 9 24 26 17 26 -9z
m53 -17 c-3 -10 -9 -16 -14 -13 -11 6 -12 38 -2 47 10 11 21 -13 16 -34z m54
7 c-4 -9 -11 -16 -17 -16 -11 0 -14 33 -3 44 11 10 26 -11 20 -28z m63 4 c0
-20 -5 -30 -15 -30 -10 0 -15 10 -15 30 0 20 5 30 15 30 10 0 15 -10 15 -30z
m60 6 c0 -27 -15 -42 -25 -26 -8 13 3 50 16 50 5 0 9 -11 9 -24z m60 -6 c0
-25 -18 -36 -26 -16 -8 21 3 49 16 41 5 -3 10 -15 10 -25z m50 0 c0 -11 -4
-20 -10 -20 -5 0 -10 9 -10 20 0 11 5 20 10 20 6 0 10 -9 10 -20z m50 0 c0
-11 -4 -20 -10 -20 -5 0 -10 9 -10 20 0 11 5 20 10 20 6 0 10 -9 10 -20z m62
8 c6 -17 -1 -38 -13 -38 -5 0 -9 11 -9 25 0 26 14 34 22 13z m48 -13 c0 -8 -4
-15 -10 -15 -5 0 -10 7 -10 15 0 8 5 15 10 15 6 0 10 -7 10 -15z m234 -27
c399 -235 623 -639 603 -1087 -6 -131 -7 -143 -34 -251 -20 -82 -80 -235 -99
-251 -12 -10 -14 1 -14 70 0 77 -1 81 -22 81 -50 0 -50 2 -43 236 3 120 10
223 14 228 14 17 22 69 23 143 l1 68 -99 5 -99 5 0 280 0 280 -150 2 c-193 4
-195 4 -195 49 0 19 5 44 10 55 8 15 7 21 -4 25 -14 5 -14 8 -1 21 8 8 15 30
15 49 0 20 5 34 12 34 6 0 44 -19 82 -42z m-757 -44 c-3 -3 -12 -4 -19 -1 -8
3 -5 6 6 6 11 1 17 -2 13 -5z m231 -1 c-10 -2 -28 -2 -40 0 -13 2 -5 4 17 4
22 1 32 -1 23 -4z m140 0 c-10 -2 -26 -2 -35 0 -10 3 -2 5 17 5 19 0 27 -2 18
-5z m138 -5 c3 -4 -8 -8 -25 -8 -16 0 -32 4 -36 9 -3 5 8 9 25 9 17 -1 33 -5
36 -10z m-61 -38 c12 -23 16 -69 18 -197 l2 -168 -236 -3 c-201 -2 -238 0
-249 13 -9 11 -11 53 -5 175 6 137 10 164 27 185 l19 25 204 0 204 0 16 -30z
m-528 -48 c3 -22 2 -102 -2 -176 -6 -122 -9 -136 -26 -141 -43 -14 -49 8 -49
169 0 135 2 155 21 185 18 30 22 32 35 19 9 -8 18 -34 21 -56z m651 31 c6 -16
12 -100 14 -188 l3 -160 -30 0 -30 0 -3 168 c-2 158 4 207 27 207 5 0 13 -12
19 -27z m-772 -24 c2 -13 0 -93 -3 -178 l-6 -154 -64 -74 c-36 -40 -68 -71
-73 -68 -5 3 -7 49 -5 103 2 53 3 131 4 173 l1 76 62 77 c34 42 66 75 72 73 5
-2 11 -14 12 -28z m-235 -59 c43 -23 15 -30 -121 -30 -77 0 -140 4 -140 8 0 4
5 13 12 20 15 15 221 16 249 2z m1389 -50 c19 -10 19 -21 13 -253 -3 -140 -10
-247 -16 -255 -8 -10 -34 -12 -101 -8 -50 2 -99 5 -108 5 -15 1 -18 10 -18 51
0 44 -3 52 -25 62 -23 10 -25 16 -25 86 0 59 -4 77 -17 87 -14 10 -16 29 -14
116 1 57 5 107 7 111 8 12 282 10 304 -2z m-1160 -323 l0 -64 -67 -79 -68 -79
-7 50 c-4 28 -5 59 -1 69 7 23 124 166 135 166 5 0 8 -29 8 -63z m240 47 c0
-17 -22 -14 -28 4 -2 7 3 12 12 12 9 0 16 -7 16 -16z m70 8 c0 -13 -12 -22
-22 -16 -10 6 -1 24 13 24 5 0 9 -4 9 -8z m75 -1 c7 -12 -12 -24 -25 -16 -11
7 -4 25 10 25 5 0 11 -4 15 -9z m75 1 c0 -13 -12 -22 -22 -16 -10 6 -1 24 13
24 5 0 9 -4 9 -8z m215 -1 c7 -12 -12 -24 -25 -16 -11 7 -4 25 10 25 5 0 11
-4 15 -9z m-145 -5 c0 -11 -19 -15 -25 -6 -3 5 1 10 9 10 9 0 16 -2 16 -4z
m70 -6 c0 -5 -4 -10 -10 -10 -5 0 -10 5 -10 10 0 6 5 10 10 10 6 0 10 -4 10
-10z m-1320 -225 c0 -96 4 -175 8 -175 4 0 33 32 65 70 31 39 61 70 66 70 5 0
11 -30 13 -67 l3 -67 -65 -79 c-100 -122 -98 -114 -34 -124 22 -3 45 -12 52
-21 10 -13 12 -9 12 29 -1 39 -2 42 -14 27 -15 -21 -56 -24 -56 -5 1 19 38 63
46 54 4 -4 13 7 18 25 6 17 17 33 24 36 10 3 12 -54 10 -275 -2 -179 -7 -277
-13 -276 -5 1 -13 24 -16 50 -5 45 -6 44 -7 -21 -2 -48 -7 -75 -18 -87 -9 -10
-14 -23 -12 -29 2 -6 30 20 63 59 33 39 63 71 68 71 4 0 7 -84 7 -187 l-1
-188 -52 57 c-106 114 -215 337 -254 518 -14 65 -18 126 -17 255 1 151 4 182
28 273 31 118 54 182 67 182 5 0 9 -79 9 -175z m958 164 c-2 -6 -8 -10 -13
-10 -5 0 -11 4 -13 10 -2 6 4 11 13 11 9 0 15 -5 13 -11z m67 1 c3 -5 1 -10
-4 -10 -6 0 -11 5 -11 10 0 6 2 10 4 10 3 0 8 -4 11 -10z m75 -6 c0 -8 -4 -12
-10 -9 -5 3 -10 10 -10 16 0 5 5 9 10 9 6 0 10 -7 10 -16z m74 -5 c-3 -5 -10
-7 -15 -3 -5 3 -7 10 -3 15 3 5 10 7 15 3 5 -3 7 -10 3 -15z m66 11 c0 -5 -5
-10 -11 -10 -5 0 -7 5 -4 10 3 6 8 10 11 10 2 0 4 -4 4 -10z m151 -13 c-13
-13 -26 -3 -16 12 3 6 11 8 17 5 6 -4 6 -10 -1 -17z m217 -52 c6 -2 12 -9 12
-15 0 -8 -105 -11 -372 -8 -423 3 -508 6 -508 18 0 5 8 10 17 12 24 5 836 -2
851 -7z m-894 -67 c-4 -7 -32 -43 -62 -80 -48 -60 -72 -81 -72 -62 0 10 124
154 133 154 4 0 5 -6 1 -12z m830 -5 l78 -6 -3 -284 c-3 -238 -6 -285 -19
-294 -19 -13 -182 -2 -191 13 -4 5 -7 60 -7 120 -1 94 -4 117 -24 156 -58 116
-219 149 -319 65 -54 -46 -69 -91 -75 -221 -3 -64 -8 -120 -10 -124 -7 -11
-226 -10 -243 1 -11 7 -12 56 -6 287 4 154 9 282 12 287 5 9 700 10 807 0z
m-996 -31 c8 -3 12 -29 12 -83 l0 -79 -192 2 -193 3 -3 69 c-2 38 -1 75 2 83
5 12 38 14 183 12 98 -1 184 -4 191 -7z m-330 -217 c14 -30 16 -104 3 -123 -4
-8 -19 -12 -32 -10 -21 3 -24 9 -27 54 -5 88 30 137 56 79z m75 19 c3 -4 2
-15 -4 -25 -5 -11 -6 -19 -1 -19 5 0 14 11 20 25 12 25 13 26 119 23 62 -2
108 -7 110 -13 4 -13 -100 -137 -122 -145 -8 -3 -39 -3 -68 0 -50 5 -52 6 -58
40 -4 19 -7 -51 -8 -157 -1 -184 -7 -221 -31 -197 -5 5 -10 114 -12 242 l-3
232 26 0 c14 0 29 -3 32 -6z m1705 -39 c18 -39 15 -52 -24 -95 l-36 -40 -143
0 c-106 0 -145 3 -154 13 -7 9 -8 37 -4 80 l6 67 172 0 172 0 11 -25z m-791
-71 c57 -42 68 -69 68 -157 l0 -82 -135 0 -135 0 -3 109 c-3 113 2 129 43 147
35 15 133 5 162 -17z m803 -137 c0 -206 -15 -270 -56 -236 -11 9 -14 45 -14
149 0 134 1 139 26 169 14 17 30 29 35 25 5 -3 9 -51 9 -107z m-1792 61 c5 -7
7 -28 5 -46 -5 -29 -9 -33 -32 -30 -20 2 -27 9 -29 31 -2 16 -1 35 2 43 7 17
40 18 54 2z m190 -130 c2 -115 0 -139 -14 -152 -30 -31 -43 -3 -46 102 -3 93
-4 96 -28 102 -18 4 -26 13 -28 34 -6 50 3 57 60 54 l53 -3 3 -137z m1515 111
c12 -19 -1 -269 -14 -269 -5 0 -9 45 -9 100 l0 100 -94 0 -93 0 -7 -46 c-3
-26 -6 -73 -6 -105 0 -64 -17 -81 -22 -22 -2 20 -7 38 -13 40 -6 2 -10 -46
-10 -129 l0 -133 -380 -1 c-209 -1 -419 1 -467 4 l-88 5 0 122 c0 90 4 125 13
134 9 7 50 9 126 4 102 -6 111 -8 106 -25 -5 -14 -1 -18 19 -18 28 0 33 9 14
28 -9 9 -6 12 14 12 20 0 27 -6 30 -22 2 -13 10 -23 18 -23 10 0 14 8 13 23
-2 17 2 22 22 22 20 0 24 -5 22 -22 -2 -18 3 -23 23 -23 20 0 25 4 22 23 -1
18 2 23 15 20 10 -2 18 -12 18 -23 0 -13 7 -20 20 -20 15 0 19 6 17 23 -2 17
2 22 17 22 16 0 20 -6 18 -22 -1 -17 3 -23 18 -23 15 0 19 6 18 23 -2 17 2 22
22 22 20 0 24 -5 22 -22 -1 -17 4 -24 22 -26 21 -3 23 -1 17 22 l-6 26 127 0
128 0 -3 96 c-2 53 -1 102 2 110 8 22 275 16 289 -7z m-1708 -99 c0 -18 -33
-26 -47 -12 -6 6 -7 15 -3 22 10 16 50 8 50 -10z m115 6 c0 -20 -19 -31 -32
-18 -6 6 -7 15 -4 21 10 16 36 13 36 -3z m1545 -86 c0 -81 -2 -95 -17 -98 -15
-3 -18 7 -20 75 l-3 78 -50 3 c-53 3 -72 13 -60 32 4 7 33 10 78 8 l72 -3 0
-95z m-1165 -6 c0 -13 -124 -164 -135 -164 -18 0 3 39 55 100 54 61 80 83 80
64z m-1160 -113 l165 -6 23 -49 c50 -104 61 -87 -185 -308 -120 -108 -236
-215 -258 -237 -21 -23 -44 -41 -51 -41 -6 0 -19 21 -28 48 -10 26 -26 67 -36
92 l-19 45 66 60 65 60 -36 95 c-20 52 -39 97 -42 100 -3 3 -44 7 -92 10 l-86
5 -23 60 c-13 32 -23 63 -23 67 0 9 309 8 560 -1z m1003 2 c2 -5 2 -53 -2
-108 l-6 -100 -150 0 -150 0 -3 108 -3 107 155 0 c85 0 157 -3 159 -7z m2020
-60 c160 -112 412 -296 434 -316 l23 -20 -22 -36 c-43 -72 -52 -78 -141 -85
-45 -3 -151 -9 -234 -12 -84 -4 -153 -10 -153 -13 0 -4 65 -53 145 -111 80
-57 145 -107 145 -110 0 -11 -69 -103 -83 -111 -15 -9 -547 364 -547 383 0 19
54 98 71 103 29 10 102 15 297 22 105 3 192 9 192 12 0 5 -48 41 -240 179 -33
23 -60 47 -60 53 0 11 78 119 86 119 3 0 43 -26 87 -57z m-818 18 c3 -5 1 -12
-5 -16 -5 -3 -10 1 -10 9 0 18 6 21 15 7z m70 0 c3 -5 1 -12 -5 -16 -5 -3 -10
1 -10 9 0 18 6 21 15 7z m65 -6 c0 -8 -4 -15 -10 -15 -5 0 -10 7 -10 15 0 8 5
15 10 15 6 0 10 -7 10 -15z m130 -5 c0 -5 -2 -10 -4 -10 -3 0 -8 5 -11 10 -3
6 -1 10 4 10 6 0 11 -4 11 -10z m-260 -70 c0 -5 -4 -10 -10 -10 -5 0 -10 5
-10 10 0 6 5 10 10 10 6 0 10 -4 10 -10z m70 6 c0 -3 -4 -8 -10 -11 -5 -3 -10
-1 -10 4 0 6 5 11 10 11 6 0 10 -2 10 -4z m-174 -80 c3 -8 2 -115 -3 -238 l-8
-223 -105 -42 c-58 -22 -120 -44 -137 -48 l-33 -7 0 169 c0 186 -9 222 -66
274 -93 85 -255 53 -312 -62 -22 -44 -31 -138 -32 -331 l0 -48 -46 0 -46 0 7
158 c6 132 11 165 29 207 32 71 75 116 143 150 76 38 172 40 250 6 56 -25 73
-22 73 13 0 12 3 26 7 29 3 4 66 7 140 7 106 0 135 -3 139 -14z m-948 -262
l-3 -249 -26 2 c-15 1 -50 11 -78 24 l-52 22 3 152 3 151 69 82 c38 46 73 79
78 74 5 -5 7 -121 6 -258z m-160 177 c2 -24 0 -47 -5 -52 -5 -5 -69 -11 -144
-15 -151 -8 -151 -7 -156 56 -5 62 -7 61 154 58 l148 -3 3 -44z m719 -20 c17
-11 44 -41 60 -68 28 -47 28 -50 28 -210 0 -166 -6 -192 -39 -180 -14 5 -16
31 -15 176 0 184 -7 216 -55 260 -44 41 -32 54 21 22z m773 -19 c0 -5 -24 -35
-53 -68 l-54 -58 -64 -1 -64 0 -3 -50 c-2 -27 -9 -56 -15 -64 -14 -17 -97 -71
-109 -71 -9 0 -11 207 -2 274 l7 46 178 0 c99 0 179 -4 179 -8z m-891 -83 c69
-42 71 -48 68 -214 l-2 -150 -25 0 -25 0 4 106 c3 87 0 111 -14 132 -19 30
-70 50 -118 46 -47 -4 -56 5 -47 45 4 18 10 39 14 45 12 19 108 13 145 -10z
m-1184 -73 l70 -63 -75 -84 c-41 -46 -123 -137 -182 -201 -60 -65 -108 -124
-108 -131 0 -8 28 -38 63 -68 34 -30 73 -64 86 -77 l24 -24 -39 -39 c-21 -21
-42 -39 -47 -39 -8 0 -276 239 -310 277 -17 19 -11 26 205 266 123 135 228
246 233 246 6 1 42 -28 80 -63z m2169 -373 c118 -82 246 -170 285 -196 39 -26
71 -53 71 -60 0 -13 -140 -117 -157 -117 -6 0 -37 20 -69 45 -31 25 -62 45
-68 45 -17 0 -176 -112 -176 -124 0 -6 7 -38 15 -71 8 -33 14 -68 15 -77 0
-22 -107 -95 -119 -82 -5 5 -43 162 -84 349 -57 258 -72 343 -64 354 17 20
110 81 125 81 7 0 109 -66 226 -147z m-1659 34 c93 -36 171 -70 173 -76 6 -18
-30 -101 -44 -101 -7 0 -49 14 -94 31 -60 23 -85 28 -93 20 -20 -20 -47 -104
-37 -116 5 -6 45 -24 89 -40 45 -16 81 -35 81 -41 0 -7 -9 -33 -20 -58 l-19
-45 -38 13 c-21 8 -61 23 -90 34 -60 24 -59 25 -96 -63 -16 -37 -22 -64 -16
-71 5 -6 56 -28 114 -49 58 -21 105 -43 105 -49 0 -29 -34 -96 -49 -96 -20 0
-392 138 -405 151 -6 5 -3 24 7 46 9 21 59 150 112 287 120 308 115 299 134
292 9 -3 92 -34 186 -69z m1108 -194 c7 -120 20 -463 20 -518 l1 -30 -93 -9
c-76 -7 -95 -6 -102 5 -5 8 -9 55 -9 105 0 143 -12 334 -21 334 -5 0 -13 -19
-20 -42 -23 -84 -88 -304 -106 -358 l-18 -55 -65 0 -65 0 -57 140 c-32 77 -69
175 -83 218 -15 42 -31 77 -37 77 -10 0 -3 -365 8 -417 2 -12 0 -25 -6 -28
-10 -6 -139 -9 -145 -3 -2 2 -8 142 -15 313 -6 171 -12 319 -13 330 -2 19 6
21 127 28 102 7 131 6 141 -5 12 -11 91 -205 140 -340 10 -27 21 -48 24 -48 4
0 32 91 62 202 63 234 41 211 214 216 l112 4 6 -119z"/>
<path d="M1263 4048 c-58 -42 -67 -93 -29 -173 30 -64 98 -151 139 -176 39
-23 104 -25 135 -3 27 19 52 65 52 97 0 64 -110 221 -181 257 -50 26 -77 25
-116 -2z"/>
<path d="M3984 3525 c-71 -35 -149 -107 -168 -155 -14 -35 -14 -45 -2 -74 19
-46 61 -76 105 -76 70 0 221 90 262 156 33 54 20 121 -31 161 -27 21 -111 15
-166 -12z"/>
<path d="M1522 2285 c0 -16 2 -22 5 -12 2 9 2 23 0 30 -3 6 -5 -1 -5 -18z"/>
<path d="M2507 2716 c-83 -30 -143 -102 -168 -199 -6 -27 -21 -54 -32 -62 -29
-20 -40 -19 -32 4 9 30 -5 51 -34 51 -52 0 -71 -55 -29 -84 58 -41 139 -3 153
70 30 161 188 247 331 180 68 -32 134 -120 134 -180 0 -33 60 -96 92 -96 46 0
77 57 49 91 -21 26 -56 19 -66 -13 -9 -27 -19 -14 -40 55 -46 150 -212 235
-358 183z m-267 -241 c0 -8 -4 -15 -10 -15 -5 0 -10 7 -10 15 0 8 5 15 10 15
6 0 10 -7 10 -15z m710 -20 c0 -8 -7 -15 -15 -15 -16 0 -20 12 -8 23 11 12 23
8 23 -8z"/>
<path d="M1627 2753 c-4 -3 -7 -24 -7 -45 0 -27 4 -38 15 -38 16 0 17 1 19 43
2 28 -15 53 -27 40z"/>
<path d="M1695 2748 c-9 -22 -2 -68 10 -71 14 -3 18 49 6 70 -9 17 -10 17 -16
1z"/>
<path d="M1747 2754 c-10 -11 -9 -72 3 -79 14 -8 24 42 14 66 -5 11 -13 17
-17 13z"/>
<path d="M1794 2746 c-9 -23 0 -69 14 -74 8 -2 12 10 12 42 0 44 -15 62 -26
32z"/>
<path d="M1906 2753 c-3 -3 -6 -24 -6 -45 0 -27 4 -38 15 -38 11 0 15 11 15
39 0 38 -10 57 -24 44z"/>
<path d="M1849 2748 c-11 -45 3 -90 21 -72 15 15 9 66 -7 72 -7 2 -13 2 -14 0z"/>
<path d="M2430 2414 c0 -21 3 -24 13 -15 10 8 17 7 25 -1 8 -8 13 -7 18 5 9
24 -5 41 -22 26 -10 -8 -14 -8 -14 0 0 6 -4 11 -10 11 -5 0 -10 -12 -10 -26z"/>
<path d="M2510 2415 c0 -14 5 -25 10 -25 6 0 10 11 10 25 0 14 -4 25 -10 25
-5 0 -10 -11 -10 -25z"/>
<path d="M2553 2424 c-7 -18 2 -27 27 -29 13 -1 20 5 20 16 0 22 -39 33 -47
13z"/>
<path d="M2635 2400 c-3 -5 -1 -10 4 -10 6 0 11 5 11 10 0 6 -2 10 -4 10 -3 0
-8 -4 -11 -10z"/>
<path d="M2437 2333 c-11 -10 -8 -43 3 -43 6 0 10 11 10 25 0 26 -2 29 -13 18z"/>
<path d="M2470 2311 c0 -17 2 -31 4 -31 8 0 13 51 5 56 -5 3 -9 -9 -9 -25z"/>
<path d="M2510 2320 c0 -11 0 -23 -1 -27 0 -4 4 -9 10 -11 6 -2 11 10 11 27 0
17 -4 31 -10 31 -5 0 -10 -9 -10 -20z"/>
<path d="M2550 2310 c1 -33 1 -34 15 -16 8 11 15 14 15 8 0 -7 5 -12 10 -12 6
0 10 12 10 26 0 21 -3 24 -13 15 -10 -8 -17 -7 -25 1 -9 9 -12 4 -12 -22z"/>
<path d="M2635 2310 c2 -31 15 -37 15 -7 0 15 -4 27 -8 27 -5 0 -8 -9 -7 -20z"/>
<path d="M2370 2090 c0 -16 5 -21 23 -18 12 2 22 10 22 18 0 8 -10 16 -22 18
-18 3 -23 -2 -23 -18z"/>
<path d="M2450 2091 c0 -21 26 -36 36 -20 9 15 -3 39 -21 39 -8 0 -15 -9 -15
-19z"/>
<path d="M2534 2095 c-4 -10 -1 -21 7 -26 20 -12 34 -5 34 17 0 24 -33 31 -41
9z"/>
<path d="M2597 2096 c-8 -20 20 -43 35 -28 14 14 3 42 -16 42 -7 0 -16 -6 -19
-14z"/>
<path d="M2674 2095 c-4 -9 -2 -21 4 -27 15 -15 44 -1 40 19 -4 23 -36 29 -44
8z"/>
<path d="M2754 2095 c-4 -9 -2 -21 4 -27 15 -15 44 -1 40 19 -4 23 -36 29 -44
8z"/>
<path d="M820 1968 c-41 -6 -77 -12 -79 -14 -7 -6 41 -124 51 -124 16 0 187
125 187 138 1 14 -47 14 -159 0z"/>
<path d="M1693 2064 c-8 -21 13 -42 28 -27 13 13 5 43 -11 43 -6 0 -13 -7 -17
-16z"/>
<path d="M1754 2065 c-7 -18 3 -35 21 -35 21 0 28 19 15 35 -16 19 -29 19 -36
0z"/>
<path d="M1827 2073 c-15 -14 -7 -43 12 -43 26 0 36 17 21 35 -14 16 -23 19
-33 8z"/>
<path d="M1902 2068 c-15 -15 -3 -38 19 -38 12 0 19 7 19 19 0 22 -23 34 -38
19z"/>
<path d="M1694 1989 c-10 -17 13 -36 27 -22 12 12 4 33 -11 33 -5 0 -12 -5
-16 -11z"/>
<path d="M1757 1993 c-14 -13 -6 -33 12 -33 19 0 35 23 24 34 -8 8 -28 8 -36
-1z"/>
<path d="M1815 1990 c-9 -15 4 -30 26 -30 12 0 19 7 19 20 0 21 -33 29 -45 10z"/>
<path d="M1897 1994 c-16 -16 -6 -35 16 -32 12 2 22 10 22 18 0 16 -26 25 -38
14z"/>
<path d="M2420 1661 c0 -12 5 -21 10 -21 6 0 10 6 10 14 0 8 -4 18 -10 21 -5
3 -10 -3 -10 -14z"/>
<path d="M2460 1660 c0 -11 5 -20 10 -20 6 0 10 9 10 20 0 11 -4 20 -10 20 -5
0 -10 -9 -10 -20z"/>
<path d="M2507 1661 c-5 -22 1 -33 14 -25 12 7 12 44 0 44 -5 0 -11 -9 -14
-19z"/>
<path d="M2557 1641 c-3 -12 -1 -24 4 -27 13 -8 24 25 12 37 -7 7 -12 3 -16
-10z"/>
<path d="M3328 1185 c-8 -8 59 -219 70 -223 14 -4 112 60 111 73 0 6 -29 34
-64 63 -96 80 -112 92 -117 87z"/>
</g>
</svg>
